<svg width="24" height="25" viewBox="0 0 24 25" fill="none" xmlns="http://www.w3.org/2000/svg">
<path d="M16.3687 7.83874C15.5756 7.13306 14.6232 6.63016 13.5932 6.37311C12.5632 6.11607 11.4862 6.11255 10.4545 6.36285C10.6366 6.6066 11.8339 8.23517 12.9134 10.22C15.2571 9.34142 16.2482 8.00749 16.3687 7.83874V7.83874ZM13.125 13.8521C9.40982 15.1459 8.07321 17.7253 7.95536 17.9664C9.07232 18.837 10.4759 19.3566 12 19.3566C12.9134 19.3566 13.7839 19.1718 14.5741 18.8343C14.475 18.2557 14.0946 16.2414 13.1679 13.8361L13.125 13.8521ZM14.4027 13.5334C15.2652 15.9012 15.6161 17.8298 15.683 18.2316C17.1616 17.2325 18.2143 15.6495 18.5063 13.8146C18.2813 13.745 16.4679 13.2039 14.4027 13.5334ZM12 0.759277C5.37321 0.759277 0 6.13249 0 12.7593C0 19.3861 5.37321 24.7593 12 24.7593C18.6268 24.7593 24 19.3861 24 12.7593C24 6.13249 18.6268 0.759277 12 0.759277ZM12 20.4736C7.74643 20.4736 4.28571 17.0128 4.28571 12.7593C4.28571 8.50571 7.74643 5.04499 12 5.04499C16.2536 5.04499 19.7143 8.50571 19.7143 12.7593C19.7143 17.0128 16.2536 20.4736 12 20.4736ZM13.4223 11.2003C13.575 11.5137 13.7223 11.8325 13.8589 12.1539C13.9071 12.2664 13.9554 12.3789 14.0009 12.4941C16.192 12.2182 18.3723 12.6602 18.5893 12.7057C18.5759 11.1495 18.0188 9.72178 17.1027 8.59946C16.9607 8.78963 15.8571 10.2066 13.4223 11.2003V11.2003ZM11.6411 10.6164C10.5482 8.67446 9.37232 7.04321 9.19821 6.80481C7.35536 7.67535 5.97589 9.37356 5.55 11.4173C5.84464 11.4227 8.56071 11.4361 11.6411 10.6164ZM12.4607 12.8262C12.5464 12.7995 12.6321 12.7727 12.7205 12.7486C12.5545 12.3736 12.375 11.9986 12.1875 11.6316C8.89821 12.6173 5.70268 12.5745 5.41607 12.5691C5.41339 12.6361 5.41339 12.703 5.41339 12.77C5.41339 14.4628 6.05357 16.0084 7.10625 17.1762C7.25357 16.9191 9.06161 13.9245 12.4607 12.8262V12.8262Z" fill="white"/>
</svg>
