<svg width="22" height="15" viewBox="0 0 22 15" fill="none" xmlns="http://www.w3.org/2000/svg">
<path d="M18.5858 13.6736C19.3668 14.4547 20.6332 14.4547 21.4142 13.6736C22.1953 12.8926 22.1953 11.6262 21.4142 10.8452L18.5858 13.6736ZM11 3.2594L12.4142 1.84519L11 0.430972L9.58579 1.84519L11 3.2594ZM0.585786 10.8452C-0.195262 11.6262 -0.195262 12.8926 0.585786 13.6736C1.36684 14.4547 2.63316 14.4547 3.41421 13.6736L0.585786 10.8452ZM21.4142 10.8452L12.4142 1.84519L9.58579 4.67361L18.5858 13.6736L21.4142 10.8452ZM9.58579 1.84519L0.585786 10.8452L3.41421 13.6736L12.4142 4.67361L9.58579 1.84519Z" fill="#8BFFCE"/>
</svg>
