<svg width="20" height="31" viewBox="0 0 20 31" fill="none" xmlns="http://www.w3.org/2000/svg">
<path fill-rule="evenodd" clip-rule="evenodd" d="M5.51883 0.599609C2.46008 0.599609 7.9381e-05 3.16586 7.9381e-05 6.30961C7.9381e-05 8.22086 0.91008 9.91836 2.30883 10.9546C1.58793 11.4947 1.00359 12.1962 0.60266 13.0028C0.201728 13.8095 -0.00464678 14.6988 7.9381e-05 15.5996C7.9381e-05 17.5121 0.91008 19.2084 2.30883 20.2446C1.58793 20.7847 1.00359 21.4862 0.60266 22.2928C0.201728 23.0995 -0.00464678 23.9888 7.9381e-05 24.8896C7.9381e-05 28.0334 2.46008 30.5996 5.51883 30.5996C8.57633 30.5996 11.0376 28.0334 11.0376 24.8896V20.0621C12.0042 20.8681 13.2227 21.3099 14.4813 21.3109C17.5401 21.3096 20.0001 18.7434 20.0001 15.5996C20.0001 13.6871 19.0913 11.9909 17.6913 10.9546C18.4122 10.4145 18.9966 9.71301 19.3975 8.90637C19.7984 8.09973 20.0048 7.21038 20.0001 6.30961C20.0001 3.16586 17.5401 0.599609 14.4813 0.599609H5.51883V0.599609ZM2.07383 6.30961C2.07383 4.32086 3.62633 2.72836 5.51883 2.72836H8.96258V9.89086H5.51883C3.62633 9.89086 2.07383 8.29711 2.07383 6.30961V6.30961ZM14.4813 9.88961H11.0376V2.72711H14.4813C16.3751 2.72711 17.9263 4.32086 17.9263 6.30961C17.9263 8.29711 16.3751 9.88961 14.4813 9.88961ZM2.07508 15.5996C2.07508 13.6121 3.62758 12.0184 5.52008 12.0184H8.96383V19.1809H5.51883C3.62508 19.1809 2.07383 17.5871 2.07383 15.5996H2.07508ZM11.0376 15.5996C11.0376 13.6121 12.5901 12.0184 14.4826 12.0184C16.3763 12.0184 17.9276 13.6109 17.9276 15.5996C17.9276 17.5871 16.3763 19.1809 14.4826 19.1809C12.5901 19.1809 11.0388 17.5884 11.0388 15.5996H11.0376ZM2.07508 24.8896C2.07508 22.9021 3.62758 21.3096 5.52008 21.3096H8.96383V24.8896C8.96383 26.8784 7.41383 28.4709 5.52008 28.4709C3.62758 28.4709 2.07508 26.8784 2.07508 24.8896Z" fill="white"/>
</svg>
