<svg width="24" height="25" viewBox="0 0 24 25" fill="none" xmlns="http://www.w3.org/2000/svg">
<path fill-rule="evenodd" clip-rule="evenodd" d="M12 0.759277C5.37 0.759277 0 6.12928 0 12.7593C0 18.0693 3.435 22.5543 8.205 24.1443C8.805 24.2493 9.03 23.8893 9.03 23.5743C9.03 23.2893 9.015 22.3443 9.015 21.3393C6 21.8943 5.22 20.6043 4.98 19.9293C4.845 19.5843 4.26 18.5193 3.75 18.2343C3.33 18.0093 2.73 17.4543 3.735 17.4393C4.68 17.4243 5.355 18.3093 5.58 18.6693C6.66 20.4843 8.385 19.9743 9.075 19.6593C9.18 18.8793 9.495 18.3543 9.84 18.0543C7.17 17.7543 4.38 16.7193 4.38 12.1293C4.38 10.8243 4.845 9.74428 5.61 8.90428C5.49 8.60428 5.07 7.37428 5.73 5.72428C5.73 5.72428 6.735 5.40928 9.03 6.95428C9.99 6.68428 11.01 6.54928 12.03 6.54928C13.05 6.54928 14.07 6.68428 15.03 6.95428C17.325 5.39428 18.33 5.72428 18.33 5.72428C18.99 7.37428 18.57 8.60428 18.45 8.90428C19.215 9.74428 19.68 10.8093 19.68 12.1293C19.68 16.7343 16.875 17.7543 14.205 18.0543C14.64 18.4293 15.015 19.1493 15.015 20.2743C15.015 21.8793 15 23.1693 15 23.5743C15 23.8893 15.225 24.2643 15.825 24.1443C18.2072 23.34 20.2772 21.809 21.7437 19.7666C23.2101 17.7243 23.9993 15.2736 24 12.7593C24 6.12928 18.63 0.759277 12 0.759277Z" fill="white"/>
</svg>
