<svg width="29" height="31" viewBox="0 0 29 31" fill="none" xmlns="http://www.w3.org/2000/svg">
<path fill-rule="evenodd" clip-rule="evenodd" d="M0 0.599609H28.4209V30.5996H0V0.599609ZM21.7266 25.7496C20.4086 25.7496 19.6637 25.0246 19.0918 24.0371L16.9211 25.3684C17.7051 27.0034 19.3073 28.2509 21.7882 28.2509C24.3248 28.2509 26.2136 26.8609 26.2136 24.3221C26.2136 21.9684 24.9323 20.9221 22.6633 19.8934L21.9954 19.5921C20.8491 19.0671 20.3529 18.7259 20.3529 17.8796C20.3529 17.1959 20.8503 16.6721 21.6319 16.6721C22.3981 16.6721 22.8919 17.0134 23.3502 17.8796L25.4296 16.4709C24.5498 14.8371 23.33 14.2134 21.6319 14.2134C19.2469 14.2134 17.7205 15.8234 17.7205 17.9384C17.7205 20.2321 18.9994 21.3184 20.9273 22.1846L21.5952 22.4871C22.8137 23.0496 23.5396 23.3921 23.5396 24.3584C23.5396 25.1659 22.8327 25.7496 21.7266 25.7496V25.7496ZM11.3767 25.7309C10.4589 25.7309 10.0764 25.0684 9.6572 24.2809L7.483 25.6709C8.11299 27.0784 9.35167 28.2459 11.4892 28.2459C13.8564 28.2459 15.4776 26.9171 15.4776 23.9984V14.3734H12.8072V23.9609C12.8072 25.3696 12.253 25.7309 11.3755 25.7309H11.3767Z" fill="white"/>
</svg>
