<svg width="24" height="25" viewBox="0 0 24 25" fill="none" xmlns="http://www.w3.org/2000/svg">
<path fill-rule="evenodd" clip-rule="evenodd" d="M2.96792e-07 2.76437C2.96792e-07 2.23259 0.21125 1.72258 0.587278 1.34656C0.963305 0.97053 1.47331 0.75928 2.00509 0.75928H21.9927C22.2563 0.75885 22.5173 0.810403 22.7609 0.910989C23.0045 1.01158 23.2258 1.15922 23.4123 1.34546C23.5987 1.53171 23.7466 1.75291 23.8475 1.99638C23.9483 2.23986 24.0001 2.50083 24 2.76437V22.752C24.0003 23.0156 23.9486 23.2767 23.8479 23.5202C23.7472 23.7638 23.5994 23.9852 23.4131 24.1716C23.2268 24.3581 23.0055 24.5059 22.762 24.6068C22.5184 24.7076 22.2574 24.7594 21.9938 24.7593H2.00509C1.74169 24.7593 1.48086 24.7074 1.23752 24.6065C0.994184 24.5057 0.773096 24.3579 0.586892 24.1716C0.400688 23.9853 0.253017 23.7641 0.152316 23.5207C0.0516145 23.2774 -0.000143013 23.0165 2.96792e-07 22.7531V2.76437ZM9.49964 9.90982H12.7495V11.5418C13.2185 10.6036 14.4185 9.75928 16.2218 9.75928C19.6789 9.75928 20.4982 11.628 20.4982 15.0567V21.408H16.9996V15.8378C16.9996 13.8851 16.5305 12.7833 15.3393 12.7833C13.6865 12.7833 12.9993 13.9713 12.9993 15.8378V21.408H9.49964V9.90982ZM3.49964 21.2586H6.99927V9.75928H3.49964V21.2575V21.2586ZM7.5 6.00873C7.5066 6.30838 7.45328 6.60632 7.34317 6.88508C7.23306 7.16383 7.06838 7.41779 6.8588 7.63204C6.64921 7.84629 6.39894 8.01652 6.12268 8.13274C5.84641 8.24896 5.54972 8.30883 5.25 8.30883C4.95028 8.30883 4.65359 8.24896 4.37732 8.13274C4.10106 8.01652 3.85079 7.84629 3.6412 7.63204C3.43162 7.41779 3.26694 7.16383 3.15683 6.88508C3.04672 6.60632 2.9934 6.30838 3 6.00873C3.01295 5.42058 3.25569 4.86087 3.67624 4.44948C4.09678 4.0381 4.6617 3.80774 5.25 3.80774C5.8383 3.80774 6.40322 4.0381 6.82376 4.44948C7.24431 4.86087 7.48705 5.42058 7.5 6.00873V6.00873Z" fill="white"/>
</svg>
