<svg width="53" height="49" viewBox="0 0 53 49" fill="none" xmlns="http://www.w3.org/2000/svg">
<path fill-rule="evenodd" clip-rule="evenodd" d="M28.5827 19.6112C28.46 19.5265 28.3361 19.4439 28.2109 19.3635C28.0104 19.2346 27.8067 19.1111 27.6002 18.9932C27.3078 18.8264 27.0096 18.6707 26.7064 18.5266C26.6822 18.515 26.658 18.5036 26.6338 18.4923C25.8949 18.1464 25.1265 17.8688 24.3389 17.6642C24.2816 17.6493 24.2235 17.6346 24.166 17.6205C22.2472 17.1498 20.2189 17.1117 18.2265 17.5743C18.124 17.5981 18.0216 17.6233 17.9193 17.6497C17.8966 17.6556 17.874 17.6615 17.8514 17.6675C17.8514 17.6675 17.8514 17.6675 17.8514 17.6675C16.5237 18.0208 15.3301 18.627 14.2249 19.3528C14.0992 19.4353 13.9746 19.5193 13.8512 19.6048L16.5668 22.2274V27.7232L10.9268 22.4289C10.8391 22.547 10.7527 22.6662 10.668 22.7865C9.90241 23.8728 9.26484 25.0476 8.90142 26.357C8.89503 26.38 8.88871 26.4031 8.88247 26.4261C8.86394 26.4945 8.84607 26.563 8.82885 26.6315C8.34383 28.5621 8.38185 30.5279 8.87128 32.3872C9.23566 33.7716 9.85028 35.0969 10.6855 36.3049C10.7661 36.4215 10.8488 36.537 10.9335 36.6513L22.2069 25.7669L28.4931 25.2839L24.2643 29.4277C24.3872 29.5126 24.5114 29.5954 24.6368 29.676C24.8375 29.805 25.0413 29.9285 25.248 30.0465C26.3214 30.6592 27.4722 31.121 28.6655 31.4154C30.589 31.89 32.6229 31.9298 34.6211 31.4658C34.7234 31.442 34.8256 31.4169 34.9277 31.3905C34.9506 31.3846 34.9734 31.3786 34.9962 31.3725C36.3252 31.0188 37.5198 30.4125 38.626 29.6859C38.7508 29.6039 38.8745 29.5204 38.9972 29.4355L36.331 26.8619L36.2923 21.1776L41.9202 26.6114C42.0082 26.493 42.0947 26.3735 42.1797 26.253C42.945 25.1672 43.5823 23.9936 43.9456 22.6845C43.9522 22.6607 43.9588 22.6369 43.9652 22.613C43.9856 22.5379 44.0051 22.4626 44.0239 22.3873C44.503 20.4637 44.4633 18.5055 43.9756 16.6529C43.7288 15.7154 43.3673 14.8049 42.9003 13.9397C42.8903 13.9212 42.8803 13.9027 42.8702 13.8843C42.6581 13.4961 42.4248 13.1172 42.171 12.7491C42.0874 12.6278 42.0016 12.5078 41.9136 12.3889L33.2288 20.7721L33.1779 20.8225C33.1679 20.8322 33.158 20.8419 33.1485 20.8509L30.6402 23.2734L24.3072 23.7589L27.3693 20.7824C27.3693 20.7824 27.5969 20.5613 27.8164 20.3496C27.9391 20.2313 28.0593 20.116 28.1359 20.0438L28.5827 19.6112ZM31.1602 16.5145C31.0619 16.4445 30.963 16.3756 30.8634 16.3077C26.8369 13.5624 21.7719 12.5408 16.917 13.7751C16.8943 13.7809 16.8716 13.7867 16.8489 13.7926C14.9034 14.2959 13.0994 15.1218 11.5013 16.2081C11.3805 16.2903 11.2608 16.374 11.1423 16.4591C9.80657 17.4186 8.62408 18.5642 7.63464 19.8571C7.61379 19.8843 7.59302 19.9117 7.57234 19.939C6.38031 21.5172 5.47438 23.3117 4.92599 25.2537C4.92599 25.2536 4.92598 25.2537 4.92599 25.2537C4.9195 25.2766 4.91305 25.2996 4.90667 25.3227C3.73055 29.5603 5.22755 34.8266 7.86143 38.9268C7.87638 38.9501 7.89138 38.9733 7.90641 38.9966C8.53107 39.9611 9.21856 40.86 9.9487 41.6644C10.2131 41.9556 10.4831 42.2345 10.7577 42.4996L21.328 32.2621C21.4465 32.3511 21.5661 32.4385 21.6866 32.5243C21.7848 32.5943 21.8837 32.6632 21.9833 32.7311C26.0096 35.4763 31.0746 36.4968 35.9294 35.2627C35.9523 35.2569 35.9751 35.251 35.998 35.2451C37.9437 34.7418 39.7477 33.916 41.3458 32.8297C41.4506 32.7585 41.5544 32.6862 41.6574 32.6128C43.0127 31.6464 44.2116 30.4891 45.2128 29.1808C45.2332 29.1542 45.2535 29.1275 45.2737 29.1007C46.4657 27.5231 47.3717 25.7291 47.9203 23.7877C47.927 23.7639 47.9337 23.7401 47.9403 23.7163C49.0584 19.6875 48.4641 15.4836 46.5008 11.8969C46.2505 11.4557 45.7279 10.7571 45.1294 10.007C45.1124 9.98568 45.0953 9.96432 45.0782 9.94292C43.7842 8.32653 42.1659 6.49964 42.1659 6.49964L31.5189 16.7768C31.4003 16.6878 31.2807 16.6003 31.1602 16.5145ZM21.9499 37.9245L10.7626 48.7594L7.63212 45.7371C4.97141 43.1683 2.76121 39.6865 1.42123 36.0214C0.0940981 32.3913 -0.540833 28.1237 0.570571 24.1192C2.57735 16.8886 8.39953 11.3302 15.7219 9.43598C20.938 8.08664 26.3122 8.79841 30.9027 11.1172L42.42 0L45.5343 3.51574L42.761 5.97251C45.5343 3.51575 45.5342 3.51562 45.5343 3.51574L45.5804 3.56793L45.701 3.70497C45.8042 3.82243 45.9511 3.99034 46.1294 4.19568C46.485 4.60523 46.9701 5.16918 47.4838 5.78193C48.3779 6.84847 49.7711 8.54176 50.4148 9.6764L50.4317 9.7062L50.4482 9.73625C52.9388 14.2863 53.7271 19.6927 52.2764 24.9197C50.2695 32.1509 44.4468 37.7076 37.125 39.6017C31.9117 40.9503 26.5396 40.2409 21.9499 37.9245Z" fill="white"/>
<path d="M31.519 16.7769C27.3771 13.6681 21.9918 12.4623 16.849 13.7927C11.0235 15.2997 6.46759 19.6989 4.90673 25.3228C3.34584 30.9468 6.49319 38.3826 10.7577 42.4998L21.3281 32.2623C25.4699 35.3711 30.8553 36.5756 35.9981 35.2452C41.8235 33.7382 46.3795 29.3403 47.9403 23.7164C49.0585 19.6876 48.4641 15.4837 46.5009 11.8971C45.7061 10.4961 42.166 6.49976 42.166 6.49976L31.519 16.7769ZM41.9136 12.389C44.1105 15.3551 44.9425 19.0931 43.9457 22.6847C43.5421 24.139 42.8001 25.4263 41.9203 26.6115L36.2923 21.1777L36.3311 26.862L38.9973 29.4356C37.7691 30.2854 36.4348 31.0008 34.9278 31.3906C31.2075 32.353 27.3366 31.5493 24.2644 29.4279L28.4931 25.2841L22.207 25.767L10.9336 36.6514C8.73666 33.6855 7.9047 29.9486 8.90148 26.3571C9.30514 24.9027 10.047 23.6143 10.9269 22.429L16.5669 27.7233V22.2275L13.8512 19.6049C15.079 18.7555 16.413 18.0395 17.9194 17.6498C21.6392 16.6876 25.5107 17.4904 28.5828 19.6113L28.1359 20.0439C27.9221 20.2454 27.3694 20.7826 27.3694 20.7826L24.3072 23.759L30.6403 23.2735L33.1485 20.851C33.1581 20.842 33.168 20.8324 33.178 20.8226L33.2288 20.7722L41.9136 12.389Z" fill="url(#paint0_linear_12_982)"/>
<defs>
<linearGradient id="paint0_linear_12_982" x1="4.50049" y1="6.49976" x2="48.5005" y2="6.49976" gradientUnits="userSpaceOnUse">
<stop stop-color="#A838FF"/>
<stop offset="1" stop-color="#7378FF"/>
</linearGradient>
</defs>
</svg>
