<svg width="60" height="33" viewBox="0 0 60 33" fill="none" xmlns="http://www.w3.org/2000/svg">
<path d="M29.5385 0.599609C12.9748 0.599609 0 7.6273 0 16.5996C0 25.5719 12.9748 32.5996 29.5385 32.5996C46.1022 32.5996 59.0769 25.5719 59.0769 16.5996C59.0769 7.6273 46.1022 0.599609 29.5385 0.599609ZM26.4714 5.52269H29.696L28.672 10.4458H31.552C33.3785 10.4458 34.6043 10.7018 35.3034 11.3393C35.9852 11.9695 36.192 13.0033 35.9188 14.4113L34.6388 20.2919H31.36L32.5391 14.8544C32.6818 14.1085 32.6252 13.5891 32.3742 13.3159C32.1255 13.0427 31.5766 12.9073 30.7545 12.9073H28.1723L26.6142 20.2919H23.3846L26.4714 5.52269V5.52269ZM12.3077 10.4458H18.8702C21.9988 10.4458 23.8942 12.543 23.1532 15.6716C22.2917 19.3073 19.9877 20.2919 15.744 20.2919H13.7157L13.0732 23.9842H9.81169L12.3077 10.4458ZM38.1538 10.4458H44.7163C47.8449 10.4458 49.7403 12.543 48.9994 15.6716C48.1378 19.3073 45.8314 20.2919 41.5902 20.2919H39.5618L38.9194 23.9842H35.6578L38.1538 10.4458ZM15.1015 12.9073L14.1735 17.8304H16.2782C18.0997 17.8304 19.7932 17.6236 20.0763 14.9061C20.1822 13.855 19.744 12.9073 17.6394 12.9073H15.1015ZM40.9477 12.9073L40.0197 17.8304H42.1243C43.9458 17.8304 45.6394 17.6236 45.9225 14.9061C46.0283 13.855 45.5926 12.9073 43.4855 12.9073H40.9477V12.9073Z" fill="white"/>
</svg>
